<svg width="257" height="257" viewBox="0 0 257 257" fill="none" xmlns="http://www.w3.org/2000/svg">
<rect x="0.800018" y="0.800018" width="256" height="256" rx="61.3933" fill="black"/>
<path d="M158.801 49.1432L167.463 57.8092C170.479 60.8268 170.479 65.7013 167.463 68.7189L117.737 118.471C114.721 121.488 109.849 121.488 106.833 118.471L98.1722 109.805C95.1562 106.787 95.1562 101.912 98.1722 98.8949L147.897 49.1432C150.836 46.1256 155.785 46.1256 158.801 49.1432Z" fill="white"/>
<path d="M150.603 139.129L159.265 147.795C162.281 150.813 162.281 155.688 159.265 158.705L109.539 208.457C106.523 211.474 101.651 211.474 98.6353 208.457L89.974 199.791C86.958 196.773 86.958 191.899 89.974 188.881L139.699 139.129C142.715 136.112 147.587 136.112 150.603 139.129Z" fill="white"/>
<path d="M199.711 90.2289L208.372 98.8948C211.388 101.912 211.388 106.787 208.372 109.805L199.711 118.471C196.695 121.488 191.823 121.488 188.807 118.471L180.146 109.805C177.13 106.787 177.13 101.912 180.146 98.8948L188.807 90.2289C191.823 87.2113 196.695 87.2113 199.711 90.2289Z" fill="white"/>
<path d="M68.784 139.207L77.4453 147.873C80.4613 150.89 80.4613 155.765 77.4453 158.783L68.784 167.448C65.768 170.466 60.896 170.466 57.88 167.448L49.2187 158.783C46.2027 155.765 46.2027 150.89 49.2187 147.873L57.88 139.207C60.8187 136.189 65.768 136.189 68.784 139.207Z" fill="white"/>
<path d="M109.772 49.1431L118.433 57.809C121.449 60.8266 121.449 65.7012 118.433 68.7188L109.772 77.3847C106.756 80.4023 101.884 80.4023 98.8679 77.3847L90.2066 68.7188C87.1906 65.7012 87.1906 60.8266 90.2066 57.809L98.8679 49.1431C101.884 46.1255 106.756 46.1255 109.772 49.1431Z" fill="#FFAD00"/>
<path d="M158.801 180.215L167.462 188.881C170.478 191.899 170.478 196.774 167.462 199.791L158.801 208.457C155.785 211.475 150.913 211.475 147.897 208.457L139.236 199.791C136.22 196.774 136.22 191.899 139.236 188.881L147.897 180.215C150.835 177.198 155.785 177.198 158.801 180.215Z" fill="#FFAD00"/>
<path d="M118.433 150.89L109.772 159.556C106.756 162.574 101.884 162.574 98.8681 159.556L49.1429 109.804C46.1269 106.787 46.1269 101.912 49.1429 98.8947L57.8042 90.2288C60.8202 87.2112 65.6921 87.2112 68.7081 90.2288L118.433 139.98C121.449 142.998 121.449 147.873 118.433 150.89Z" fill="#FFAD00"/>
<path d="M208.449 158.783L199.865 167.449C196.849 170.466 191.977 170.466 188.961 167.449L139.236 117.697C136.22 114.68 136.22 109.805 139.236 106.787L147.897 98.1215C150.913 95.1039 155.785 95.1039 158.801 98.1215L208.526 147.873C211.465 150.891 211.465 155.765 208.449 158.783Z" fill="#FFAD00"/>
</svg>
