<svg width="340" height="80" viewBox="0 0 340 80" fill="none" xmlns="http://www.w3.org/2000/svg">
<rect width="80" height="80" rx="19.1854" fill="black"/>
<path d="M49.3749 15.1072L52.0816 17.8153C53.0241 18.7583 53.0241 20.2816 52.0816 21.2246L36.5425 36.7719C35.6 37.7149 34.0775 37.7149 33.135 36.7719L30.4283 34.0638C29.4858 33.1208 29.4858 31.5975 30.4283 30.6545L45.9674 15.1072C46.8858 14.1642 48.4324 14.1642 49.3749 15.1072Z" fill="white"/>
<path d="M46.8134 43.228L49.5201 45.9361C50.4626 46.8791 50.4626 48.4024 49.5201 49.3454L33.9809 64.8928C33.0384 65.8358 31.5159 65.8358 30.5734 64.8928L27.8668 62.1847C26.9243 61.2417 26.9243 59.7184 27.8668 58.7754L43.4059 43.228C44.3484 42.285 45.8709 42.285 46.8134 43.228Z" fill="white"/>
<path d="M62.1594 27.9465L64.8661 30.6546C65.8086 31.5976 65.8086 33.1209 64.8661 34.0639L62.1594 36.772C61.2169 37.715 59.6944 37.715 58.7519 36.772L56.0453 34.0639C55.1028 33.1209 55.1028 31.5976 56.0453 30.6546L58.7519 27.9465C59.6944 27.0035 61.2169 27.0035 62.1594 27.9465Z" fill="white"/>
<path d="M21.2451 43.2522L23.9518 45.9603C24.8943 46.9033 24.8943 48.4266 23.9518 49.3696L21.2451 52.0777C20.3026 53.0207 18.7801 53.0207 17.8376 52.0777L15.1309 49.3696C14.1884 48.4266 14.1884 46.9033 15.1309 45.9603L17.8376 43.2522C18.7559 42.3092 20.3026 42.3092 21.2451 43.2522Z" fill="white"/>
<path d="M34.0534 15.1072L36.7601 17.8153C37.7026 18.7583 37.7026 20.2816 36.7601 21.2246L34.0534 23.9327C33.1109 24.8757 31.5885 24.8757 30.646 23.9327L27.9393 21.2246C26.9968 20.2816 26.9968 18.7583 27.9393 17.8153L30.646 15.1072C31.5885 14.1642 33.1109 14.1642 34.0534 15.1072Z" fill="#FFAD00"/>
<path d="M49.375 56.0674L52.0816 58.7755C53.0241 59.7185 53.0241 61.2418 52.0816 62.1848L49.375 64.8929C48.4325 65.8359 46.91 65.8359 45.9675 64.8929L43.2608 62.1848C42.3183 61.2418 42.3183 59.7185 43.2608 58.7755L45.9675 56.0674C46.8858 55.1244 48.4325 55.1244 49.375 56.0674Z" fill="#FFAD00"/>
<path d="M36.7601 46.9032L34.0534 49.6113C33.1109 50.5543 31.5884 50.5543 30.6459 49.6113L15.1068 34.0639C14.1643 33.1209 14.1643 31.5976 15.1068 30.6546L17.8134 27.9465C18.7559 27.0035 20.2784 27.0035 21.2209 27.9465L36.7601 43.4939C37.7026 44.4369 37.7026 45.9602 36.7601 46.9032Z" fill="#FFAD00"/>
<path d="M64.8899 49.3696L62.2074 52.0777C61.2649 53.0207 59.7425 53.0207 58.8 52.0777L43.2608 36.5303C42.3183 35.5873 42.3183 34.064 43.2608 33.121L45.9675 30.4129C46.91 29.4699 48.4325 29.4699 49.375 30.4129L64.9141 45.9603C65.8324 46.9033 65.8324 48.4266 64.8899 49.3696Z" fill="#FFAD00"/>
<path d="M145.804 27.5875C146.283 27.5875 146.731 27.6812 147.147 27.8686C147.584 28.0559 147.959 28.3161 148.271 28.6492C148.604 28.9615 148.864 29.3362 149.052 29.7734C149.239 30.1897 149.333 30.6477 149.333 31.1473C149.333 31.6053 149.229 32.0945 149.02 32.6149L137.342 56.6279V56.5967C137.113 57.0547 136.884 57.471 136.655 57.8457C136.468 58.158 136.27 58.439 136.062 58.6888C135.853 58.9387 135.666 59.0636 135.5 59.0636C135.375 59.0636 135.229 58.9803 135.062 58.8137C134.917 58.6472 134.771 58.4494 134.625 58.2204C134.479 58.0123 134.334 57.7937 134.188 57.5647C134.063 57.3149 133.969 57.1067 133.907 56.9402L127.912 43.1694C127.787 42.9196 127.631 42.6802 127.443 42.4512C127.277 42.2014 127.1 42.0765 126.912 42.0765C126.704 42.0765 126.506 42.2118 126.319 42.4824C126.132 42.7531 125.976 43.0133 125.851 43.2631L120.011 56.6279V56.5967C119.824 57.0547 119.626 57.471 119.418 57.8457C119.251 58.158 119.054 58.439 118.825 58.6888C118.617 58.9387 118.429 59.0636 118.263 59.0636C118.138 59.0636 118.002 59.0011 117.857 58.8762C117.732 58.7513 117.597 58.5952 117.451 58.4078C117.305 58.2204 117.17 58.0227 117.045 57.8145C116.92 57.5855 116.816 57.3773 116.733 57.19L104.773 32.6774C104.544 32.2194 104.429 31.7094 104.429 31.1473C104.429 30.6477 104.523 30.1897 104.71 29.7734C104.898 29.3362 105.148 28.9615 105.46 28.6492C105.793 28.3161 106.168 28.0559 106.584 27.8686C107.021 27.6812 107.49 27.5875 107.989 27.5875C108.697 27.5875 109.332 27.7853 109.894 28.1808C110.477 28.5555 110.914 29.0447 111.206 29.6484L117.638 43.669C117.701 43.8356 117.773 43.9813 117.857 44.1062C118.002 44.3768 118.138 44.5121 118.263 44.5121C118.367 44.5121 118.492 44.3768 118.637 44.1062C118.721 43.9813 118.794 43.8356 118.856 43.669L125.101 29.0239C125.143 28.9407 125.205 28.8158 125.289 28.6492C125.393 28.4827 125.518 28.3265 125.663 28.1808C125.83 28.0143 126.007 27.879 126.194 27.7749C126.402 27.65 126.631 27.5875 126.881 27.5875C127.173 27.5875 127.433 27.6708 127.662 27.8373C127.891 27.9831 128.089 28.1496 128.255 28.3369C128.442 28.5659 128.599 28.8158 128.723 29.0864L135.062 43.7627C135.104 43.8668 135.177 44.0229 135.281 44.2311C135.406 44.4185 135.52 44.5121 135.624 44.5121C135.749 44.5121 135.885 44.3768 136.03 44.1062C136.114 43.9813 136.187 43.8356 136.249 43.669L142.557 29.8046C142.806 29.1384 143.223 28.6076 143.806 28.212C144.409 27.7957 145.076 27.5875 145.804 27.5875Z" fill="black"/>
<path d="M180.122 54.2235C179.123 55.306 178.019 56.2324 176.812 57.0026C175.646 57.6896 174.387 58.21 173.033 58.5639C171.701 58.897 170.234 59.0636 168.631 59.0636C164.072 59.0636 160.418 57.5959 157.67 54.6607C154.922 51.767 153.548 47.8742 153.548 42.982C153.548 38.1732 154.881 34.2803 157.545 31.3034C160.21 28.3682 163.78 26.9005 168.256 26.9005C170.525 26.9005 172.534 27.2544 174.283 27.9622C176.031 28.6492 177.561 29.7213 178.873 31.1785C181.475 34.0097 182.776 37.9234 182.776 42.9196C182.734 43.3984 182.537 43.8043 182.183 44.1374C181.85 44.4705 181.444 44.637 180.965 44.637H162.541C162.458 44.637 162.323 44.6474 162.136 44.6683C161.948 44.6891 161.761 44.7515 161.573 44.8556C161.407 44.9389 161.272 45.0846 161.167 45.2928C161.063 45.4801 161.043 45.7508 161.105 46.1047C161.438 47.9158 162.177 49.4042 163.322 50.57C164.779 52.0272 166.632 52.7559 168.88 52.7559C170.629 52.7559 172.086 52.3395 173.252 51.5068C173.564 51.2778 173.887 50.9864 174.22 50.6325C174.574 50.2578 174.949 49.831 175.344 49.3522C175.656 48.915 176.052 48.5715 176.531 48.3217C177.03 48.0719 177.551 47.947 178.092 47.947C178.571 47.947 179.018 48.0407 179.435 48.2281C179.851 48.3946 180.205 48.634 180.497 48.9463C180.809 49.2585 181.048 49.6228 181.215 50.0392C181.402 50.4555 181.496 50.8927 181.496 51.3507C181.496 52.1626 181.246 52.8808 180.746 53.5053C180.726 53.5469 180.705 53.5781 180.684 53.599C180.663 53.599 180.642 53.6094 180.621 53.6302L180.122 54.2235ZM161.854 37.4862C161.813 37.5903 161.782 37.7256 161.761 37.8922C161.74 38.0379 161.761 38.1836 161.823 38.3293C161.886 38.4751 162 38.6104 162.167 38.7353C162.354 38.8394 162.635 38.8914 163.01 38.8914H174.126C174.418 38.8706 174.636 38.8081 174.782 38.7041C174.928 38.5792 175.022 38.4542 175.063 38.3293C175.126 38.1836 175.146 38.0483 175.126 37.9234C175.105 37.7777 175.084 37.6528 175.063 37.5487C173.897 34.6759 171.68 33.2395 168.412 33.2395C167.496 33.2395 166.695 33.3748 166.008 33.6454C165.258 33.8952 164.571 34.2699 163.947 34.7696C163.634 35.0194 163.343 35.29 163.072 35.5814C162.822 35.8521 162.593 36.1643 162.385 36.5182C162.281 36.6848 162.188 36.8513 162.104 37.0178C162.021 37.1636 161.938 37.3197 161.854 37.4862Z" fill="black"/>
<path d="M214.627 58.1268C214.148 58.1268 213.742 57.981 213.409 57.6896C213.076 57.3773 212.889 56.9818 212.847 56.503V54.9417C209.953 57.648 206.862 59.0011 203.573 59.0011C199.368 59.0011 195.901 57.4814 193.174 54.4421C190.426 51.3611 189.053 47.4994 189.053 42.8571C189.053 38.2981 190.426 34.4989 193.174 31.4596C195.86 28.4202 199.263 26.9005 203.385 26.9005C206.883 26.9005 210.037 28.3578 212.847 31.2722C212.847 30.7934 212.941 30.3458 213.128 29.9295C213.315 29.4923 213.565 29.1176 213.877 28.8053C214.19 28.4723 214.554 28.212 214.97 28.0247C215.407 27.8373 215.865 27.7437 216.344 27.7437C216.844 27.7437 217.312 27.8373 217.749 28.0247C218.187 28.212 218.561 28.4723 218.874 28.8053C219.207 29.1176 219.467 29.4923 219.654 29.9295C219.842 30.3458 219.935 30.7934 219.935 31.2722C219.935 31.3138 219.925 31.3451 219.904 31.3659C219.904 31.3867 219.904 31.4075 219.904 31.4283H219.935L219.904 56.3781C219.904 56.8569 219.727 57.2733 219.373 57.6271C219.04 57.9602 218.624 58.1268 218.124 58.1268H214.627ZM210.942 50.0392C212.545 48.1448 213.347 45.8028 213.347 43.0133C213.347 40.1821 212.545 37.8401 210.942 35.9874C209.339 34.1763 207.247 33.2707 204.666 33.2707C202.292 33.2707 200.294 34.1763 198.67 35.9874C197.046 37.8609 196.235 40.1509 196.235 42.8571C196.235 45.73 197.026 48.0823 198.608 49.9143C200.232 51.7878 202.24 52.7246 204.634 52.7246C207.216 52.7246 209.318 51.8295 210.942 50.0392Z" fill="black"/>
<path d="M251.13 27.65C251.63 27.65 252.088 27.7437 252.504 27.931C252.941 28.1184 253.316 28.3682 253.628 28.6804C253.941 28.9927 254.19 29.3674 254.378 29.8046C254.565 30.2209 254.659 30.6789 254.659 31.1785C254.659 31.8447 254.503 32.4276 254.19 32.9272L242.73 56.4718L242.699 56.4406C242.491 56.8985 242.272 57.3149 242.043 57.6896C241.856 58.0019 241.658 58.2829 241.45 58.5327C241.263 58.7825 241.086 58.9074 240.919 58.9074C240.815 58.9074 240.701 58.845 240.576 58.7201C240.451 58.5952 240.316 58.439 240.17 58.2517C240.045 58.0643 239.91 57.8666 239.764 57.6584C239.639 57.4294 239.535 57.2212 239.452 57.0339L227.773 32.8335C227.482 32.3131 227.336 31.751 227.336 31.1473C227.336 30.6685 227.43 30.2209 227.617 29.8046C227.804 29.3674 228.054 28.9927 228.366 28.6804C228.699 28.3682 229.074 28.1184 229.49 27.931C229.928 27.7437 230.396 27.65 230.896 27.65C231.603 27.65 232.238 27.8477 232.8 28.2433C233.383 28.618 233.81 29.1176 234.081 29.7421L234.112 29.7734L240.638 43.8564C240.68 43.9605 240.732 44.0646 240.794 44.1686C240.878 44.2519 240.951 44.2935 241.013 44.2935C241.096 44.2935 241.2 44.1791 241.325 43.9501C241.388 43.8668 241.45 43.7523 241.513 43.6066V43.6378L247.883 29.7734C248.153 29.1488 248.58 28.6388 249.163 28.2433C249.746 27.8477 250.402 27.65 251.13 27.65Z" fill="black"/>
<path d="M285.479 54.2235C284.48 55.306 283.377 56.2324 282.169 57.0026C281.003 57.6896 279.744 58.21 278.391 58.5639C277.058 58.897 275.591 59.0636 273.988 59.0636C269.429 59.0636 265.775 57.5959 263.027 54.6607C260.28 51.767 258.906 47.8742 258.906 42.982C258.906 38.1732 260.238 34.2803 262.903 31.3034C265.567 28.3682 269.137 26.9005 273.613 26.9005C275.882 26.9005 277.891 27.2544 279.64 27.9622C281.388 28.6492 282.919 29.7213 284.23 31.1785C286.832 34.0097 288.133 37.9234 288.133 42.9196C288.092 43.3984 287.894 43.8043 287.54 44.1374C287.207 44.4705 286.801 44.637 286.322 44.637H267.899C267.815 44.637 267.68 44.6474 267.493 44.6683C267.305 44.6891 267.118 44.7515 266.931 44.8556C266.764 44.9389 266.629 45.0846 266.525 45.2928C266.421 45.4801 266.4 45.7508 266.462 46.1047C266.795 47.9158 267.534 49.4042 268.679 50.57C270.137 52.0272 271.989 52.7559 274.238 52.7559C275.986 52.7559 277.444 52.3395 278.609 51.5068C278.922 51.2778 279.244 50.9864 279.577 50.6325C279.931 50.2578 280.306 49.831 280.701 49.3522C281.014 48.915 281.409 48.5715 281.888 48.3217C282.388 48.0719 282.908 47.947 283.449 47.947C283.928 47.947 284.376 48.0407 284.792 48.2281C285.208 48.3946 285.562 48.634 285.854 48.9463C286.166 49.2585 286.405 49.6228 286.572 50.0392C286.759 50.4555 286.853 50.8927 286.853 51.3507C286.853 52.1626 286.603 52.8808 286.104 53.5053C286.083 53.5469 286.062 53.5781 286.041 53.599C286.02 53.599 286 53.6094 285.979 53.6302L285.479 54.2235ZM267.212 37.4862C267.17 37.5903 267.139 37.7256 267.118 37.8922C267.097 38.0379 267.118 38.1836 267.181 38.3293C267.243 38.4751 267.357 38.6104 267.524 38.7353C267.711 38.8394 267.992 38.8914 268.367 38.8914H279.484C279.775 38.8706 279.994 38.8081 280.139 38.7041C280.285 38.5792 280.379 38.4542 280.42 38.3293C280.483 38.1836 280.504 38.0483 280.483 37.9234C280.462 37.7777 280.441 37.6528 280.42 37.5487C279.255 34.6759 277.038 33.2395 273.769 33.2395C272.853 33.2395 272.052 33.3748 271.365 33.6454C270.615 33.8952 269.928 34.2699 269.304 34.7696C268.992 35.0194 268.7 35.29 268.43 35.5814C268.18 35.8521 267.951 36.1643 267.743 36.5182C267.639 36.6848 267.545 36.8513 267.462 37.0178C267.378 37.1636 267.295 37.3197 267.212 37.4862Z" fill="black"/>
<path d="M302.872 54.6607C302.872 55.1603 302.778 55.6287 302.591 56.0658C302.404 56.4822 302.154 56.8465 301.842 57.1588C301.529 57.471 301.155 57.7208 300.718 57.9082C300.301 58.0747 299.843 58.158 299.344 58.158C298.865 58.158 298.407 58.0643 297.97 57.877C297.553 57.6896 297.189 57.4398 296.877 57.1275C296.564 56.8153 296.315 56.451 296.127 56.0346C295.94 55.5974 295.846 55.1291 295.846 54.6294V8.85178C295.846 8.37298 295.94 7.915 296.127 7.47783C296.315 7.04066 296.564 6.66595 296.877 6.35368C297.189 6.0206 297.553 5.76039 297.97 5.57303C298.407 5.38567 298.865 5.29199 299.344 5.29199C299.822 5.29199 300.27 5.38567 300.686 5.57303C301.123 5.76039 301.498 6.0206 301.81 6.35368C302.144 6.66595 302.404 7.04066 302.591 7.47783C302.778 7.89418 302.872 8.34175 302.872 8.82056V54.6607Z" fill="black"/>
<path d="M340 31.3034C340 31.6782 339.938 32.0425 339.813 32.3964C339.709 32.7294 339.563 33.0417 339.376 33.3331L319.235 72.3659C318.985 73.0321 318.558 73.5837 317.954 74.0209C317.371 74.4789 316.685 74.7079 315.893 74.7079C315.394 74.7079 314.925 74.6142 314.488 74.4269C314.072 74.2395 313.697 73.9793 313.364 73.6462C313.052 73.3339 312.802 72.9592 312.615 72.5221C312.427 72.1057 312.334 71.6477 312.334 71.1481C312.334 70.3362 312.563 69.6388 313.021 69.056L321.389 53.3492C321.473 53.2243 321.545 53.0785 321.608 52.912C321.67 52.7454 321.702 52.6205 321.702 52.5373C321.702 52.4748 321.67 52.3811 321.608 52.2562C321.566 52.1313 321.525 52.0168 321.483 51.9128C321.4 51.7878 321.327 51.6421 321.264 51.4756L311.272 33.3644C311.064 33.0729 310.897 32.7607 310.772 32.4276C310.668 32.0737 310.616 31.699 310.616 31.3034C310.616 30.8038 310.71 30.3458 310.897 29.9295C311.085 29.4923 311.334 29.1176 311.647 28.8053C311.98 28.4723 312.354 28.212 312.771 28.0247C313.208 27.8373 313.676 27.7437 314.176 27.7437C314.905 27.7437 315.55 27.9414 316.112 28.3369C316.695 28.7325 317.132 29.2425 317.424 29.867V29.8358L324.949 43.9813C325.012 44.0854 325.105 44.2103 325.23 44.356C325.355 44.5017 325.49 44.5746 325.636 44.5746C325.803 44.5746 325.959 44.4601 326.104 44.2311C326.188 44.1478 326.25 44.0333 326.292 43.8876L333.162 30.0544C333.432 29.3882 333.859 28.847 334.442 28.4306C335.025 27.9935 335.701 27.7749 336.472 27.7749C336.95 27.7749 337.398 27.8686 337.814 28.0559C338.251 28.2433 338.626 28.5035 338.938 28.8366C339.271 29.1488 339.532 29.5235 339.719 29.9607C339.906 30.3771 340 30.8246 340 31.3034Z" fill="black"/>
</svg>
