<svg width="19" height="19" viewBox="0 0 19 19" fill="none" xmlns="http://www.w3.org/2000/svg">
<path d="M13.0969 1.04869L14.0485 2.00073C14.3799 2.33225 14.3799 2.86777 14.0485 3.19929L8.58552 8.66505C8.25417 8.99656 7.71892 8.99656 7.38757 8.66505L6.43601 7.713C6.10466 7.38149 6.10466 6.84596 6.43601 6.51445L11.899 1.04869C12.2219 0.71717 12.7656 0.71717 13.0969 1.04869Z" fill="white"/>
<path d="M12.1961 10.9349L13.1476 11.887C13.479 12.2185 13.479 12.754 13.1476 13.0855L7.68464 18.5513C7.3533 18.8828 6.81804 18.8828 6.48669 18.5513L5.53513 17.5992C5.20378 17.2677 5.20378 16.7322 5.53513 16.4007L10.9981 10.9349C11.3295 10.6034 11.8647 10.6034 12.1961 10.9349Z" fill="white"/>
<path d="M17.5909 5.5626L18.5425 6.51465C18.8738 6.84616 18.8738 7.38169 18.5425 7.7132L17.5909 8.66525C17.2595 8.99677 16.7243 8.99677 16.3929 8.66525L15.4414 7.7132C15.11 7.38169 15.11 6.84616 15.4414 6.51465L16.3929 5.5626C16.7243 5.23109 17.2595 5.23109 17.5909 5.5626Z" fill="white"/>
<path d="M3.20662 10.9435L4.15818 11.8955C4.48953 12.227 4.48953 12.7625 4.15818 13.0941L3.20662 14.0461C2.87527 14.3776 2.34002 14.3776 2.00867 14.0461L1.0571 13.0941C0.725757 12.7625 0.725757 12.227 1.0571 11.8955L2.00867 10.9435C2.33152 10.6119 2.87527 10.6119 3.20662 10.9435Z" fill="white"/>
<path d="M7.70955 1.04893L8.66111 2.00098C8.99246 2.33249 8.99246 2.86802 8.66111 3.19953L7.70955 4.15158C7.3782 4.48309 6.84295 4.48309 6.5116 4.15158L5.56003 3.19953C5.22869 2.86802 5.22869 2.33249 5.56003 2.00098L6.5116 1.04893C6.84295 0.717414 7.3782 0.717414 7.70955 1.04893Z" fill="#FFAD00"/>
<path d="M13.0958 15.4488L14.0473 16.4009C14.3787 16.7324 14.3787 17.2679 14.0473 17.5994L13.0958 18.5515C12.7644 18.883 12.2292 18.883 11.8978 18.5515L10.9463 17.5994C10.6149 17.2679 10.6149 16.7324 10.9463 16.4009L11.8978 15.4488C12.2207 15.1173 12.7644 15.1173 13.0958 15.4488Z" fill="#FFAD00"/>
<path d="M8.66082 12.2272L7.70925 13.1792C7.37791 13.5107 6.84265 13.5107 6.5113 13.1792L1.04832 7.71345C0.716968 7.38193 0.716968 6.84641 1.04832 6.51489L1.99988 5.56285C2.33123 5.23133 2.86648 5.23133 3.19783 5.56285L8.66082 11.0286C8.99216 11.3601 8.99216 11.8957 8.66082 12.2272Z" fill="#FFAD00"/>
<path d="M18.5503 13.0944L17.6072 14.0464C17.2759 14.3779 16.7406 14.3779 16.4093 14.0464L10.9463 8.58064C10.6149 8.24912 10.6149 7.71359 10.9463 7.38208L11.8978 6.43003C12.2292 6.09852 12.7644 6.09852 13.0958 6.43003L18.5588 11.8958C18.8816 12.2273 18.8816 12.7628 18.5503 13.0944Z" fill="#FFAD00"/>
</svg>
